# xmcd CD database file
#
# Track frame offsets:
#	182
#	11950
#	27372
#	41530
#	51482
#	59687
#	72310
#	84115
#	97382
#	110615
#
# Disc length: 1627 seconds
#
# Revision: 1
# Processed by: cddbd v1.5.2PL0 Copyright (c) Steve Scherf et al.
# Submitted via: CDex 1.51
#
DISCID=9006590a
DTITLE=The Platters - The Great Pretender
DYEAR=1960
DGENRE=Jazz
TTITLE0=Only You
TTITLE1=The Three Bells
TTITLE2=Blues in the Night
TTITLE3=Shine on Harvest Moon
TTITLE4=When I Fall in Love
TTITLE5=My Prayer
TTITLE6=The Great Pretender
TTITLE7=Sentimental Journey
TTITLE8=Harbour Lights
TTITLE9=Twilight Time
EXTD=YEAR: 1960
EXTT0=
EXTT1=
EXTT2=
EXTT3=
EXTT4=
EXTT5=
EXTT6=
EXTT7=
EXTT8=
EXTT9=
PLAYORDER=
